<svg width="38" height="38" viewBox="0 0 38 38" fill="none" xmlns="http://www.w3.org/2000/svg">
<circle cx="19" cy="19" r="19" fill="#24C95B" fill-opacity="0.7"/>
<path d="M19.0074 29.5664C19.83 28.9567 20.8162 28.6045 21.8404 28.5547C22.8708 28.5672 23.8864 28.7998 24.8186 29.2369C25.8868 29.7307 27.0488 29.9909 28.2264 30C30.1887 30 31.7388 27.9418 31.8839 27.7453C31.9593 27.6452 32 27.5235 32 27.3984C32 27.2451 31.9388 27.098 31.83 26.9896C31.7211 26.8812 31.5734 26.8203 31.4195 26.8203C30.8389 26.8203 30.5486 26.4445 30.5486 25.664C30.5486 24.284 29.9982 22.9606 29.0183 21.9848C28.0384 21.009 26.7094 20.4608 25.3237 20.4608C24.666 20.4588 24.0154 20.5958 23.4149 20.8629C22.8145 21.13 22.2778 21.5211 21.8404 22.0102C21.6967 22.1721 21.6082 22.3752 21.5875 22.5903C21.5668 22.8054 21.6151 23.0215 21.7253 23.2076C21.8355 23.3937 22.002 23.5403 22.201 23.6264C22.4001 23.7125 22.6213 23.7336 22.8332 23.6868C22.9841 23.6563 23.1378 23.6408 23.2918 23.6405C23.8307 23.6405 24.3475 23.8537 24.7286 24.2332C25.1096 24.6127 25.3237 25.1274 25.3237 25.664C25.3262 25.975 25.2546 26.2821 25.1147 26.5601C25.0804 26.6281 25.0599 26.7021 25.0543 26.7779C25.0487 26.8538 25.0582 26.93 25.0822 27.0022C25.1062 27.0744 25.1442 27.1412 25.1941 27.1988C25.244 27.2563 25.3048 27.3035 25.3731 27.3377C25.4413 27.3719 25.5156 27.3923 25.5918 27.3979C25.6679 27.4034 25.7445 27.394 25.817 27.3701C25.8895 27.3462 25.9566 27.3083 26.0144 27.2586C26.0722 27.2089 26.1196 27.1484 26.1539 27.0804C26.3945 26.5952 26.5071 26.057 26.4809 25.5164C26.4548 24.9759 26.2907 24.4509 26.0044 23.991C25.718 23.5311 25.3186 23.1514 24.844 22.8878C24.3694 22.6242 23.8352 22.4853 23.2918 22.4843C23.2718 22.4836 23.2525 22.4773 23.236 22.466C23.2195 22.4548 23.2067 22.439 23.1989 22.4207C23.1924 22.4011 23.1922 22.3799 23.1985 22.3601C23.2047 22.3404 23.2171 22.3232 23.2337 22.3108C23.8367 21.8605 24.57 21.6171 25.3237 21.6171C26.4015 21.6171 27.4352 22.0435 28.1973 22.8024C28.9594 23.5613 29.3875 24.5907 29.3875 25.664C29.3585 26.0361 29.4228 26.4096 29.5749 26.7507C29.7269 27.0918 29.9618 27.3899 30.2584 27.6181C30.2763 27.6303 30.2909 27.6467 30.301 27.6659C30.3112 27.685 30.3164 27.7063 30.3164 27.7279C30.3151 27.7485 30.3092 27.7685 30.2992 27.7865C30.2891 27.8045 30.2752 27.82 30.2584 27.832C29.7279 28.3936 29.0135 28.7483 28.2439 28.8322C27.2135 28.8197 26.1979 28.587 25.2657 28.15C24.1913 27.6577 23.0231 27.4014 21.8404 27.3984C20.5512 27.4583 19.3104 27.9057 18.2817 28.6819C18.222 28.7296 18.1725 28.7885 18.1358 28.8554C18.0991 28.9223 18.0761 28.9957 18.068 29.0714C18.0599 29.1472 18.0669 29.2238 18.0886 29.2968C18.1104 29.3698 18.1464 29.4379 18.1946 29.497C18.2937 29.6127 18.4346 29.6848 18.5867 29.6978C18.7388 29.7108 18.8899 29.6636 19.0074 29.5664Z" fill="white"/>
<path d="M16.0216 8H13.8256C13.3945 7.99986 12.9714 8.11585 12.6012 8.33569C12.231 8.55553 11.9274 8.87102 11.7225 9.24873V16.6265H18.1718V9.35487C17.9787 8.94971 17.6742 8.60737 17.2936 8.36756C16.913 8.12775 16.472 8.00031 16.0216 8ZM16.5009 14.3185H15.807V15.0094C15.807 15.2418 15.7143 15.4647 15.5493 15.629C15.3843 15.7933 15.1605 15.8856 14.9272 15.8856C14.6938 15.8856 14.47 15.7933 14.305 15.629C14.14 15.4647 14.0473 15.2418 14.0473 15.0094V14.3185H13.3535C12.8813 14.3185 12.4965 13.9495 12.475 13.4843C12.4833 13.2571 12.5792 13.0419 12.7429 12.8833C12.9065 12.7247 13.1252 12.6351 13.3535 12.6331H14.0473V11.9279C14.0473 11.4328 14.4407 11.0332 14.9272 11.0332C15.4136 11.0332 15.807 11.4328 15.807 11.9279V12.6331H16.5009C16.973 12.6331 17.3578 13.0163 17.38 13.4843C17.3691 13.7092 17.2718 13.9213 17.1081 14.0766C16.9444 14.2319 16.7269 14.3185 16.5009 14.3185ZM22.3021 16.6265H18.8871V9.518C20.85 10.0629 22.2964 11.8901 22.3021 14.057V16.6265ZM11.0072 16.6265V9.50304C9.01291 10.0287 7.54508 11.8702 7.54508 14.057V16.625L11.0072 16.6265ZM7.49501 17.3032H22.3378C23.1676 17.3032 23.8328 17.9657 23.8328 18.792C23.8328 19.6112 23.1605 20.2808 22.3378 20.2808H20.9158V21.5559C20.9158 22.9008 20.4694 24.1417 19.7155 25.1404C19.8078 25.4588 19.7284 25.8164 19.4773 26.0678C18.8811 26.6673 18.1713 27.143 17.3892 27.4673C16.607 27.7915 15.768 27.958 14.9207 27.957C14.0742 27.9562 13.2361 27.7892 12.4545 27.4656C11.6729 27.1419 10.963 26.6679 10.3656 26.0707C10.2458 25.9511 10.1602 25.8018 10.1178 25.6382C10.0755 25.4746 10.0778 25.3028 10.1245 25.1404C9.34382 24.1072 8.92245 22.8489 8.92422 21.5559V20.2808H7.49501C6.6724 20.2808 6 19.6112 6 18.792C6 17.9728 6.6724 17.3032 7.49501 17.3032ZM19.8829 21.5559V20.2808H9.95713V21.5559C9.95713 22.6443 10.3105 23.6501 10.9092 24.4665C11.1925 24.4287 11.4886 24.5185 11.7061 24.735C12.1272 25.1571 12.628 25.4921 13.1795 25.7208C13.731 25.9495 14.3225 26.0674 14.92 26.0678C16.1747 26.0678 17.3084 25.5621 18.1318 24.7372C18.3485 24.5192 18.6468 24.4287 18.9308 24.4665C19.5509 23.6219 19.8849 22.6022 19.8829 21.5559Z" fill="white"/>
</svg>
