<svg width="38" height="38" viewBox="0 0 38 38" fill="none" xmlns="http://www.w3.org/2000/svg">
<circle cx="19" cy="19" r="19" fill="#F56D23" fill-opacity="0.7"/>
<path d="M20.815 29.5227C20.687 29.3576 20.608 29.1598 20.5871 28.9519C20.5662 28.744 20.6042 28.5344 20.6968 28.3471C20.9388 27.8769 21.0336 27.3392 20.9718 26.8099C20.9213 26.4321 20.7965 26.0681 20.6046 25.7387C20.4163 25.413 20.1631 25.1294 19.8608 24.9055C18.8327 24.1329 18.1113 23.0213 17.8244 21.7677C15.4759 24.8464 16.3765 26.594 17.5013 28.134C17.6327 28.3147 17.7019 28.5332 17.6984 28.7566C17.695 28.9801 17.619 29.1963 17.482 29.3729C17.342 29.5513 17.1541 29.6863 16.9403 29.762C16.7289 29.836 16.5005 29.847 16.283 29.7936C14.7636 29.4224 13.3336 28.7156 12.3643 27.5895C11.8152 26.9637 11.3922 26.2377 11.1185 25.4514C10.8418 24.6583 10.7191 23.8196 10.7569 22.9805C10.7569 22.9805 10.574 19.5939 14.6578 16.276C14.6578 16.276 19.484 12.1812 17.8093 9.15349C17.7474 9.00458 17.729 8.84118 17.7563 8.68225C17.7835 8.52333 17.8553 8.37539 17.9633 8.25561C18.0683 8.13842 18.2067 8.05623 18.3598 8.02009C18.513 7.98395 18.6736 7.99561 18.8199 8.05349L19.0206 8.13324C20.8385 9.28233 22.2593 10.9623 23.0906 12.9457C23.8881 14.8886 23.8826 17.1532 23.3436 19.1704C23.7905 18.7689 24.1631 18.289 24.445 17.75L24.4849 17.662C24.7571 17.0061 25.6138 17.2151 25.9355 17.6441C26.0538 17.8325 29.087 22.2407 27.4576 25.9601C26.8627 27.0875 25.9924 28.0463 24.9276 28.7472C24.0352 29.3406 23.0372 29.7574 21.9879 29.9751C21.7711 30.0211 21.5456 30.0029 21.3389 29.9229C21.1304 29.8416 20.9489 29.7034 20.815 29.5241V29.5227ZM18.3868 18.8514C18.515 18.7838 18.664 18.767 18.8041 18.8041C18.9442 18.8413 19.0651 18.9298 19.143 19.0521C19.198 19.1346 19.2324 19.2254 19.2461 19.3244L19.308 19.8042C19.3355 20.5069 19.3273 21.2411 19.6009 21.9162C19.8841 22.6092 20.3241 23.2225 20.8824 23.701C21.6016 24.1742 22.1583 24.8567 22.4774 25.6562C22.7799 26.4317 22.8211 27.2925 22.5929 28.0941C23.2915 27.8746 23.9407 27.521 24.5041 27.0532L24.6458 26.9377C25.1078 26.5569 25.4886 26.0811 25.7636 25.5394C26.04 24.999 26.2064 24.405 26.2504 23.7945C26.3398 22.3851 25.8599 20.9702 25.1133 19.708C24.7723 20.203 24.302 20.5866 23.7589 20.8135C23.4193 20.9579 23.059 21.0472 22.6919 21.0747C22.4817 21.0876 22.2722 21.0399 22.0883 20.9372C21.9017 20.8314 21.7487 20.6751 21.6469 20.4862C21.563 20.3339 21.5151 20.1643 21.5067 19.9906C21.4984 19.8169 21.5299 19.6436 21.5988 19.4839C22.1653 18.1474 22.3413 16.6651 22.1006 15.2255C21.8161 13.5783 21.0272 12.0601 19.8429 10.8805C19.6284 13.9124 16.5195 16.7352 15.8815 17.343C15.7822 17.4357 15.6794 17.5247 15.5735 17.6097C12.2378 20.3116 12.466 22.7729 12.466 22.8815C12.4015 23.8591 12.6207 24.8345 13.0971 25.6906C13.599 26.5775 14.3209 27.309 15.1871 27.8081C14.1875 25.6109 14.1875 22.9736 17.8766 19.1924L18.3881 18.8486L18.3868 18.8514Z" fill="white"/>
</svg>
