<svg width="38" height="38" viewBox="0 0 38 38" fill="none" xmlns="http://www.w3.org/2000/svg">
<circle cx="19" cy="19" r="19" fill="#F5233F" fill-opacity="0.7"/>
<path d="M20.8333 9.8335V11.6668M20.8333 11.6668V13.5002M20.8333 11.6668H17.1667M17.1667 11.6668V9.8335M17.1667 11.6668V13.5002" stroke="white" stroke-width="1.5" stroke-linecap="round"/>
<path d="M10.75 28.167V18.432C10.75 15.2209 10.75 13.6149 11.8069 12.6167C12.4788 11.9823 13.4111 11.7513 14.875 11.667M27.25 28.167V18.432C27.25 15.2209 27.25 13.6149 26.1931 12.6167C25.5212 11.9823 24.5889 11.7513 23.125 11.667" stroke="white" stroke-width="1.5" stroke-linecap="round" stroke-linejoin="round"/>
<path d="M20.8333 17.167H22.6667M20.8333 20.8337H22.6667M14.4167 20.8337H16.25M14.4167 17.167H16.25" stroke="white" stroke-width="1.5" stroke-linecap="round"/>
<path d="M9.83333 28.167H16.7083M28.1667 28.167H21.2917" stroke="white" stroke-width="1.5" stroke-linecap="round" stroke-linejoin="round"/>
<path d="M16.7083 28.1668V25.8752C16.7083 25.0181 16.7083 24.59 16.8926 24.271C17.0133 24.062 17.1868 23.8884 17.3958 23.7677C17.7148 23.5835 18.1429 23.5835 19 23.5835C19.8571 23.5835 20.2852 23.5835 20.6042 23.7677C20.8132 23.8884 20.9867 24.062 21.1074 24.271C21.2917 24.59 21.2917 25.0181 21.2917 25.8752V28.1668" stroke="white" stroke-width="1.5" stroke-linecap="round"/>
</svg>
