<svg width="38" height="38" viewBox="0 0 38 38" fill="none" xmlns="http://www.w3.org/2000/svg">
<circle cx="19" cy="19" r="19" fill="#2390F5" fill-opacity="0.7"/>
<path d="M11.7968 20.8333C10.4457 22.0479 10.0267 25.028 12.8638 25.7687C14.7494 26.26 16.8394 26.7798 18.0293 27.0722C18.5087 27.1913 18.7488 27.25 19 27.25C19.2512 27.25 19.4913 27.1913 19.9717 27.0722C21.1606 26.7798 23.2506 26.26 25.1362 25.7687C27.9732 25.028 27.5543 22.047 26.2032 20.8333M9.90667 16.9228C9.4025 19.5298 11.6722 20.8333 11.6722 20.8333H26.3288C26.3288 20.8333 28.5984 19.5298 28.0933 16.9228C27.7752 15.2811 24.2516 13.1223 21.6858 11.7492C20.4419 11.0828 19.8195 10.75 19 10.75C18.1805 10.75 17.5581 11.0828 16.3142 11.7492C13.7484 13.1223 10.2247 15.2811 9.90667 16.9228Z" stroke="white" stroke-width="1.5" stroke-linecap="round" stroke-linejoin="round"/>
<path d="M17.5242 15.0857L18.538 14.5339C18.6799 14.4572 18.8387 14.417 19 14.417C19.1613 14.417 19.3201 14.4572 19.462 14.5339L20.4758 15.0857C20.7417 15.2305 20.8911 15.5257 20.8123 15.8154C20.6124 16.5487 20.1229 17.7129 19 18.0832C17.8771 17.7129 17.3867 16.5478 17.1878 15.8154C17.1089 15.5257 17.2583 15.2305 17.5242 15.0857Z" stroke="white" stroke-width="1.5" stroke-linecap="round" stroke-linejoin="round"/>
</svg>
