<svg width="38" height="38" viewBox="0 0 38 38" fill="none" xmlns="http://www.w3.org/2000/svg">
<circle cx="19" cy="19" r="19" fill="#F6D82D" fill-opacity="0.7"/>
<path d="M17.6837 20.5657C17.6915 20.5011 17.6857 20.4356 17.6665 20.3734C17.6473 20.3112 17.6152 20.2538 17.5723 20.2049C17.5293 20.156 17.4766 20.1168 17.4174 20.0897C17.3583 20.0626 17.2941 20.0483 17.229 20.0477H14.4167C14.3406 20.0469 14.2659 20.0274 14.1992 19.9909C14.1325 19.9545 14.0757 19.9021 14.034 19.8385C13.9922 19.775 13.9668 19.7021 13.9598 19.6264C13.9528 19.5506 13.9646 19.4744 13.9941 19.4043L17.5755 11.0369C17.6095 10.9527 17.6677 10.8805 17.7427 10.8294C17.8178 10.7783 17.9064 10.7507 17.9972 10.75H22.1387C22.4622 10.75 22.6832 11.08 22.5649 11.3862L20.5253 16.6222C20.4973 16.6921 20.4868 16.7679 20.4946 16.8428C20.5025 16.9178 20.5285 16.9897 20.5704 17.0523C20.6122 17.115 20.6688 17.1665 20.735 17.2024C20.8013 17.2383 20.8753 17.2575 20.9507 17.2583H23.5833C23.961 17.2583 24.1764 17.6974 23.9482 18.0036L17.1007 27.2124C17.0438 27.2885 16.9256 27.2399 16.9357 27.1464L17.6837 20.5657Z" stroke="white" stroke-width="1.5" stroke-linecap="round" stroke-linejoin="round"/>
</svg>
