<svg width="70" height="76" viewBox="0 0 70 76" fill="none" xmlns="http://www.w3.org/2000/svg">
<path fill-rule="evenodd" clip-rule="evenodd" d="M35 5.66504C15.6695 5.66504 0 21.2263 0 40.4233C0 59.6203 15.6695 75.1816 35 75.1816C54.3305 75.1816 70 59.6203 70 40.4233C70 21.2263 54.3305 5.66504 35 5.66504ZM22.75 31.7337C22.75 30.1362 23.0669 28.5542 23.6825 27.0782C24.2981 25.6023 25.2004 24.2612 26.3379 23.1315C27.4755 22.0018 28.8259 21.1058 30.3121 20.4944C31.7984 19.883 33.3913 19.5683 35 19.5683C36.6087 19.5683 38.2016 19.883 39.6879 20.4944C41.1741 21.1058 42.5245 22.0018 43.6621 23.1315C44.7996 24.2612 45.7019 25.6023 46.3175 27.0782C46.9331 28.5542 47.25 30.1362 47.25 31.7337C47.25 34.9602 45.9594 38.0545 43.6621 40.336C41.3647 42.6174 38.2489 43.8991 35 43.8991C31.7511 43.8991 28.6353 42.6174 26.3379 40.336C24.0406 38.0545 22.75 34.9602 22.75 31.7337ZM56.903 57.7468C54.2822 61.0188 50.9513 63.6609 47.1588 65.476C43.3662 67.2912 39.21 68.2326 35 68.2299C30.79 68.2326 26.6338 67.2912 22.8412 65.476C19.0487 63.6609 15.7178 61.0188 13.097 57.7468C18.7705 53.7044 26.5125 50.8508 35 50.8508C43.4875 50.8508 51.2295 53.7044 56.903 57.7468Z" fill="white"/>
</svg>
