<svg width="107" height="107" viewBox="0 0 107 107" fill="none" xmlns="http://www.w3.org/2000/svg">
<circle cx="53.5" cy="53.5" r="53" fill="white" stroke="#191716"/>
<path d="M65.6874 43C65.6874 39.519 64.3046 36.1806 61.8432 33.7192C59.3818 31.2578 56.0434 29.875 52.5624 29.875C49.0815 29.875 45.7431 31.2578 43.2817 33.7192C40.8202 36.1806 39.4374 39.519 39.4374 43C39.4374 46.481 40.8202 49.8194 43.2817 52.2808C45.7431 54.7422 49.0815 56.125 52.5624 56.125C56.0434 56.125 59.3818 54.7422 61.8432 52.2808C64.3046 49.8194 65.6874 46.481 65.6874 43Z" stroke="#191716" stroke-width="2.77941" stroke-linecap="round" stroke-linejoin="round"/>
<path d="M34.1874 74.5002C34.1871 71.2745 35.0358 68.1056 36.6484 65.3119C38.261 62.5183 40.5806 60.1984 43.374 58.5854C46.1674 56.9724 49.3362 56.1231 52.5619 56.123C55.7876 56.123 58.9564 56.972 61.7499 58.5848M77.9961 61.202L76.3607 59.5666C75.8374 59.0435 75.1279 58.7497 74.388 58.7497C73.6481 58.7497 72.9386 59.0435 72.4153 59.5666L63.6242 68.3603C62.4578 69.5289 61.6616 71.0153 61.3352 72.6338L60.4374 77.1252L64.9262 76.2275C66.5466 75.902 68.0349 75.1058 69.2049 73.9385L77.9961 65.1473C78.5191 64.6241 78.8129 63.9145 78.8129 63.1746C78.8129 62.4348 78.5191 61.7252 77.9961 61.202Z" stroke="#191716" stroke-width="2.77941" stroke-linecap="round" stroke-linejoin="round"/>
</svg>
